<?xml version="1.0" encoding="utf-8"?>
<!-- Generator: Adobe Illustrator 14.0.0, SVG Export Plug-In  -->
<!DOCTYPE svg PUBLIC "-//W3C//DTD SVG 1.1//EN" "http://www.w3.org/Graphics/SVG/1.1/DTD/svg11.dtd" [
	<!ENTITY ns_flows "http://ns.adobe.com/Flows/1.0/">
]>
<svg version="1.1"
	 xmlns="http://www.w3.org/2000/svg" xmlns:xlink="http://www.w3.org/1999/xlink" xmlns:a="http://ns.adobe.com/AdobeSVGViewerExtensions/3.0/"
	 x="0px" y="0px" width="336px" height="127px" viewBox="-0.14 -0.431 336 127" enable-background="new -0.14 -0.431 336 127"
	 xml:space="preserve">
<defs>
</defs>
<radialGradient id="SVGID_1_" cx="24.188" cy="500.1211" r="22.0424" gradientTransform="matrix(1 0 0 -1 -8.3599 528.1934)" gradientUnits="userSpaceOnUse">
	<stop  offset="0.004" style="stop-color:#FFF2DB"/>
	<stop  offset="0.309" style="stop-color:#D7B189"/>
	<stop  offset="0.6098" style="stop-color:#A46F45"/>
	<stop  offset="0.7809" style="stop-color:#8C5027"/>
	<stop  offset="1" style="stop-color:#561815"/>
</radialGradient>
<path fill="url(#SVGID_1_)" d="M6.453,22.128c0-11.038,0-13.019-0.141-15.283C6.169,4.439,5.604,3.307,3.269,2.812
	C2.703,2.67,1.5,2.6,0.864,2.6c-0.283,0-0.566-0.142-0.566-0.424c0-0.425,0.354-0.566,1.132-0.566c1.629,0,3.538,0,5.096,0.07
	l2.899,0.142c1.416,0.071,15.778,0,17.406-0.071c1.345-0.071,2.478-0.071,3.113-0.283c0.425-0.142,0.707-0.425,0.99-0.425
	c0.282,0,0.425,0.283,0.425,0.637c0,0.496-0.354,1.345-0.566,3.326c-0.07,0.708-0.212,3.821-0.354,4.67
	c-0.07,0.354-0.212,0.778-0.566,0.778c-0.354,0-0.495-0.354-0.495-0.849c0-0.566-0.212-1.769-0.637-2.688
	c-0.425-0.92-2.052-2.194-4.813-2.264L13.033,4.441c-0.425,0-0.638,0.212-0.638,0.778v19.528c0,0.424,0.07,0.637,0.496,0.637
	l9.057-0.071c1.202,0,2.193,0,3.184-0.071c1.698-0.142,2.618-0.354,3.255-1.273c0.283-0.354,0.495-0.708,0.778-0.708
	s0.354,0.212,0.354,0.566c0,0.425-0.354,1.627-0.565,3.962c-0.142,1.415-0.283,4.245-0.283,4.741c0,0.637,0,1.344-0.495,1.344
	c-0.354,0-0.496-0.283-0.496-0.637c-0.069-0.708-0.142-1.698-0.424-2.547c-0.354-0.991-1.485-2.264-3.68-2.547
	c-1.77-0.212-9.481-0.212-10.684-0.212c-0.354,0-0.496,0.142-0.496,0.637v6.014c0,6.792,0,12.382,0.354,15.354
	c0.212,2.052,0.637,3.608,2.759,3.891c0.991,0.142,2.548,0.283,3.186,0.283c0.425,0,0.564,0.212,0.564,0.424
	c0,0.354-0.354,0.566-1.132,0.566c-3.892,0-8.349-0.212-8.703-0.212c-0.354,0-4.811,0.212-6.934,0.212
	c-0.778,0-1.132-0.142-1.132-0.566c0-0.212,0.142-0.424,0.564-0.424c0.638,0,1.486-0.142,2.123-0.283
	c1.415-0.283,1.77-1.839,2.052-3.891c0.354-2.972,0.354-8.562,0.354-15.354L6.453,22.128L6.453,22.128z"/>
<radialGradient id="SVGID_2_" cx="64.3096" cy="496.4063" r="23.8501" gradientTransform="matrix(1 0 0 -1 -8.3599 528.1934)" gradientUnits="userSpaceOnUse">
	<stop  offset="0.004" style="stop-color:#FFF2DB"/>
	<stop  offset="0.309" style="stop-color:#D7B189"/>
	<stop  offset="0.6098" style="stop-color:#A46F45"/>
	<stop  offset="0.7809" style="stop-color:#8C5027"/>
	<stop  offset="1" style="stop-color:#561815"/>
</radialGradient>
<path fill="url(#SVGID_2_)" d="M53.863,10.807c0.778-1.981,1.062-2.334,1.484-2.334c0.638,0,0.851,0.849,1.486,2.193
	c1.132,2.547,11.108,27.382,14.929,36.509c2.266,5.377,3.964,6.156,5.308,6.581c0.92,0.283,1.84,0.354,2.477,0.354
	c0.354,0,0.778,0.142,0.778,0.495c0,0.354-0.707,0.496-1.415,0.496c-0.92,0-5.519,0-9.835-0.142
	c-1.203-0.071-2.193-0.071-2.193-0.425c0-0.283,0.143-0.283,0.426-0.424c0.354-0.142,0.989-0.637,0.564-1.627l-5.589-13.797
	c-0.142-0.283-0.213-0.354-0.566-0.354H47.354c-0.283,0-0.495,0.142-0.638,0.495l-3.538,9.623c-0.564,1.486-0.92,2.972-0.92,4.033
	c0,1.203,1.063,1.627,2.123,1.627h0.566c0.495,0,0.637,0.212,0.637,0.495c0,0.354-0.354,0.496-0.92,0.496
	c-1.486,0-4.882-0.212-5.59-0.212c-0.637,0-3.75,0.212-6.297,0.212c-0.778,0-1.203-0.142-1.203-0.496
	c0-0.283,0.283-0.495,0.566-0.495c0.424,0,1.344-0.071,1.839-0.142c2.831-0.354,4.032-2.477,5.235-5.519L53.863,10.807z
	 M60.796,35.854c0.283,0,0.283-0.142,0.212-0.424l-6.154-16.486c-0.354-0.92-0.707-0.92-1.063,0L47.99,35.43
	c-0.07,0.283,0,0.424,0.212,0.424H60.796z"/>
<radialGradient id="SVGID_3_" cx="104.2168" cy="495.9121" r="18.9966" gradientTransform="matrix(1 0 0 -1 -8.3599 528.1934)" gradientUnits="userSpaceOnUse">
	<stop  offset="0.004" style="stop-color:#FFF2DB"/>
	<stop  offset="0.309" style="stop-color:#D7B189"/>
	<stop  offset="0.6098" style="stop-color:#A46F45"/>
	<stop  offset="0.7809" style="stop-color:#8C5027"/>
	<stop  offset="1" style="stop-color:#561815"/>
</radialGradient>
<path fill="url(#SVGID_3_)" d="M83.935,54.251c-0.85-0.425-0.921-0.637-0.921-2.264c0-2.972,0.283-5.377,0.354-6.368
	c0-0.637,0.142-0.99,0.496-0.99c0.354,0,0.564,0.212,0.564,0.708c0,0.495,0,1.344,0.213,2.193c0.99,4.387,5.66,5.943,9.835,5.943
	c6.155,0,9.34-3.467,9.34-7.996c0-4.316-2.335-6.368-7.854-10.472l-2.83-2.123c-6.722-5.023-8.915-8.703-8.915-12.877
	c0-7.075,5.591-11.321,13.797-11.321c2.478,0,4.953,0.354,6.438,0.708c1.203,0.283,1.698,0.283,2.193,0.283
	c0.496,0,0.637,0.071,0.637,0.424c0,0.283-0.282,2.264-0.282,6.368c0,0.92-0.071,1.344-0.495,1.344
	c-0.425,0-0.496-0.283-0.565-0.778c-0.071-0.708-0.566-2.335-0.92-2.972c-0.426-0.708-2.478-2.972-8.066-2.972
	c-4.528,0-8.278,2.264-8.278,6.509c0,3.821,1.911,6.014,8.066,10.189l1.769,1.203c7.571,5.165,10.189,9.34,10.189,14.505
	c0,3.538-1.345,7.358-5.803,10.26c-2.617,1.698-6.51,2.123-9.905,2.123C90.089,55.878,86.482,55.453,83.935,54.251z"/>
<radialGradient id="SVGID_4_" cx="152.5103" cy="495.8408" r="23.7043" gradientTransform="matrix(1 0 0 -1 -8.3599 528.1934)" gradientUnits="userSpaceOnUse">
	<stop  offset="0.004" style="stop-color:#FFF2DB"/>
	<stop  offset="0.309" style="stop-color:#D7B189"/>
	<stop  offset="0.6098" style="stop-color:#A46F45"/>
	<stop  offset="0.7809" style="stop-color:#8C5027"/>
	<stop  offset="1" style="stop-color:#561815"/>
</radialGradient>
<path fill="url(#SVGID_4_)" d="M162.83,37.623c0,5.802,0.071,10.542,0.354,13.019c0.213,1.769,0.354,2.901,2.265,3.184
	c0.849,0.142,2.264,0.283,2.759,0.283c0.425,0,0.566,0.283,0.566,0.495c0,0.283-0.354,0.496-1.063,0.496
	c-3.396,0-7.357-0.212-7.712-0.212c-0.283,0-4.315,0.212-6.155,0.212c-0.708,0-0.99-0.142-0.99-0.496
	c0-0.212,0.142-0.495,0.495-0.495c0.565,0,1.273-0.142,1.84-0.283c1.272-0.283,1.485-1.486,1.697-3.254
	c0.283-2.477,0.283-7.005,0.283-12.807v-6.014c0-0.283-0.142-0.354-0.354-0.354h-25.969c-0.212,0-0.354,0.071-0.354,0.354v6.014
	c0,5.802,0,10.401,0.283,12.877c0.212,1.769,0.424,2.901,2.264,3.184c0.92,0.142,2.265,0.283,2.83,0.283
	c0.354,0,0.495,0.283,0.495,0.495c0,0.283-0.282,0.496-0.99,0.496c-3.467,0-7.43-0.212-7.712-0.212
	c-0.354,0-4.316,0.212-6.227,0.212c-0.638,0-0.991-0.142-0.991-0.496c0-0.212,0.142-0.495,0.496-0.495
	c0.564,0,1.344-0.142,1.91-0.283c1.202-0.283,1.344-1.415,1.627-3.184c0.354-2.477,0.354-7.217,0.354-13.019V27.01
	c0-9.34,0-11.038-0.141-12.948c-0.143-2.052-0.496-3.042-2.548-3.326c-0.495-0.07-1.558-0.141-2.122-0.141
	c-0.213,0-0.495-0.283-0.495-0.496c0-0.354,0.282-0.495,0.99-0.495c2.829,0,6.792,0.142,7.146,0.142
	c0.282,0,4.245-0.142,6.155-0.142c0.708,0,0.99,0.142,0.99,0.495c0,0.212-0.282,0.496-0.495,0.496c-0.426,0-0.85,0-1.558,0.141
	c-1.697,0.354-2.052,1.203-2.192,3.326c-0.07,1.911-0.07,3.75-0.07,13.09v1.273c0,0.354,0.142,0.354,0.354,0.354h25.969
	c0.212,0,0.354,0,0.354-0.354v-1.273c0-9.34-0.071-11.179-0.142-13.09c-0.143-2.052-0.425-3.042-2.478-3.326
	c-0.495-0.07-1.557-0.141-2.123-0.141c-0.281,0-0.495-0.283-0.495-0.496c0-0.354,0.283-0.495,0.991-0.495
	c2.759,0,6.792,0.142,7.075,0.142c0.354,0,4.316-0.142,6.155-0.142c0.708,0,1.062,0.142,1.062,0.495
	c0,0.212-0.282,0.496-0.564,0.496c-0.425,0-0.778,0-1.558,0.141c-1.628,0.354-1.98,1.203-2.123,3.326
	c-0.142,1.911-0.142,3.608-0.142,12.948v10.613H162.83z"/>
<radialGradient id="SVGID_5_" cx="235.8296" cy="495.877" r="24.1161" gradientTransform="matrix(1 0 0 -1 -8.3599 528.1934)" gradientUnits="userSpaceOnUse">
	<stop  offset="0.004" style="stop-color:#FFF2DB"/>
	<stop  offset="0.309" style="stop-color:#D7B189"/>
	<stop  offset="0.6098" style="stop-color:#A46F45"/>
	<stop  offset="0.7809" style="stop-color:#8C5027"/>
	<stop  offset="1" style="stop-color:#561815"/>
</radialGradient>
<path fill="url(#SVGID_5_)" d="M227.506,8.755c14.01,0,24.622,8.562,24.622,22.571c0,13.443-9.977,24.552-24.977,24.552
	c-17.052,0-24.34-12.807-24.34-23.632C202.813,22.553,210.313,8.755,227.506,8.755z M228.922,53.402
	c5.59,0,16.84-2.972,16.84-20.377c0-14.434-8.773-22.005-18.608-22.005c-10.401,0-17.901,6.51-17.901,19.599
	C209.251,44.628,217.672,53.402,228.922,53.402z"/>
<radialGradient id="SVGID_6_" cx="292.4731" cy="496.0547" r="24.2301" gradientTransform="matrix(1 0 0 -1 -8.3599 528.1934)" gradientUnits="userSpaceOnUse">
	<stop  offset="0.004" style="stop-color:#FFF2DB"/>
	<stop  offset="0.309" style="stop-color:#D7B189"/>
	<stop  offset="0.6098" style="stop-color:#A46F45"/>
	<stop  offset="0.7809" style="stop-color:#8C5027"/>
	<stop  offset="1" style="stop-color:#561815"/>
</radialGradient>
<path fill="url(#SVGID_6_)" d="M267.77,46.892c0.142,4.953,0.708,6.438,2.405,6.863c1.133,0.283,2.548,0.354,3.112,0.354
	c0.283,0,0.496,0.212,0.496,0.495c0,0.354-0.425,0.496-1.133,0.496c-3.537,0-6.014-0.212-6.58-0.212
	c-0.565,0-3.184,0.212-6.014,0.212c-0.638,0-0.991-0.071-0.991-0.496c0-0.283,0.213-0.495,0.495-0.495
	c0.496,0,1.628-0.071,2.548-0.354c1.557-0.425,1.769-2.052,1.769-7.5V11.797c0-2.406,0.354-3.042,0.851-3.042
	c0.707,0,1.769,1.203,2.405,1.84c0.989,0.99,10.047,10.613,19.67,20.519c6.154,6.368,12.807,13.514,14.717,15.495l-0.637-30.142
	c-0.07-3.892-0.426-5.236-2.335-5.59c-1.133-0.212-2.548-0.283-3.042-0.283c-0.426,0-0.496-0.354-0.496-0.566
	c0-0.354,0.496-0.424,1.203-0.424c2.829,0,5.802,0.142,6.51,0.142c0.707,0,2.759-0.142,5.307-0.142c0.637,0,1.132,0.071,1.132,0.424
	c0,0.212-0.282,0.566-0.707,0.566c-0.282,0-0.777,0-1.485,0.141c-2.053,0.425-2.193,1.627-2.193,5.236l-0.142,35.236
	c0,3.962-0.07,4.316-0.495,4.316c-0.637,0-1.273-0.495-4.74-3.679c-0.638-0.566-9.623-9.411-16.203-16.273
	c-7.217-7.571-14.222-14.93-16.133-17.052L267.77,46.892z"/>
<radialGradient id="SVGID_7_" cx="194.1538" cy="465.0938" r="52.7658" gradientTransform="matrix(1 0 0 -1 -8.3599 528.1934)" gradientUnits="userSpaceOnUse">
	<stop  offset="0.004" style="stop-color:#FFF2DB"/>
	<stop  offset="0.309" style="stop-color:#D7B189"/>
	<stop  offset="0.6098" style="stop-color:#A46F45"/>
	<stop  offset="0.7809" style="stop-color:#8C5027"/>
	<stop  offset="1" style="stop-color:#561815"/>
</radialGradient>
<path fill="url(#SVGID_7_)" d="M186.866,36.179c-2.547,6.792-13.24,67.689-15.787,74.269c-1.133,2.972-1.486,15.75-2.335,15.75
	c-0.708,0-1.062-12.778-2.477-17.589l-12.596-41.958c-1.132-3.75-2.052-4.811-3.892-5.519c-0.92-0.354-2.688-0.425-3.185-0.425
	c-0.354,0-0.637-0.071-0.637-0.495c0-0.354,0.424-0.495,1.132-0.495c3.681,0,7.571,0.212,8.35,0.212
	c0.638,0,3.751-0.212,7.288-0.212c0.99,0,1.272,0.212,1.272,0.495c0,0.424-0.354,0.495-0.707,0.495c-0.565,0-1.91,0-2.76,0.425
	c-0.425,0.212-0.92,0.778-0.92,1.698s0.637,3.396,1.345,6.51c1.063,4.528,8.42,23.495,9.481,27.245h0.141l14.001-93.33
	C185.643,0.354,185.925,0,186.351,0c0.494,0,0.92,0.92,1.769,3.326l15.08,93.118h0.283c1.91-6.51,8.421-20.029,10.897-29.085
	c0.706-2.618,0.776-3.608,0.776-4.528c0-1.273-0.776-2.123-4.033-2.123c-0.354,0-0.637-0.212-0.637-0.495
	c0-0.354,0.354-0.495,1.203-0.495c3.609,0,6.58,0.212,7.217,0.212c0.496,0,3.539-0.212,5.732-0.212c0.637,0,0.99,0.141,0.99,0.424
	c0,0.354-0.214,0.566-0.638,0.566c-0.283,0-1.629,0.071-2.405,0.354c-2.123,0.778-3.255,3.75-4.601,7.642
	c-3.113,8.986-10.26,31.486-13.02,39.41c-1.84,5.236-2.192,18.085-2.972,18.085c-0.708,0-1.133-12.919-2.123-15.679"/>
<radialGradient id="SVGID_8_" cx="261.4858" cy="437.7686" r="24.1161" gradientTransform="matrix(1 0 0 -1 -8.3599 528.1934)" gradientUnits="userSpaceOnUse">
	<stop  offset="0.004" style="stop-color:#FFF2DB"/>
	<stop  offset="0.309" style="stop-color:#D7B189"/>
	<stop  offset="0.6098" style="stop-color:#A46F45"/>
	<stop  offset="0.7809" style="stop-color:#8C5027"/>
	<stop  offset="1" style="stop-color:#561815"/>
</radialGradient>
<path fill="url(#SVGID_8_)" d="M253.161,66.863c14.01,0,24.623,8.562,24.623,22.571c0,13.443-9.977,24.552-24.977,24.552
	c-17.054,0-24.34-12.807-24.34-23.632C228.467,80.66,235.967,66.863,253.161,66.863z M254.575,111.51
	c5.59,0,16.84-2.972,16.84-20.377c0-14.434-8.772-22.005-18.606-22.005c-10.402,0-17.902,6.509-17.902,19.599
	C234.905,102.736,243.325,111.51,254.575,111.51z"/>
<radialGradient id="SVGID_9_" cx="318.6597" cy="437.7686" r="24.1161" gradientTransform="matrix(1 0 0 -1 -8.3599 528.1934)" gradientUnits="userSpaceOnUse">
	<stop  offset="0.004" style="stop-color:#FFF2DB"/>
	<stop  offset="0.309" style="stop-color:#D7B189"/>
	<stop  offset="0.6098" style="stop-color:#A46F45"/>
	<stop  offset="0.7809" style="stop-color:#8C5027"/>
	<stop  offset="1" style="stop-color:#561815"/>
</radialGradient>
<path fill="url(#SVGID_9_)" d="M310.334,66.863c14.011,0,24.623,8.562,24.623,22.571c0,13.443-9.977,24.552-24.977,24.552
	c-17.053,0-24.34-12.807-24.34-23.632C285.641,80.66,293.141,66.863,310.334,66.863z M311.75,111.51
	c5.588,0,16.838-2.972,16.838-20.377c0-14.434-8.772-22.005-18.606-22.005c-10.4,0-17.902,6.509-17.902,19.599
	C292.079,102.736,300.5,111.51,311.75,111.51z"/>
<radialGradient id="SVGID_10_" cx="236.0894" cy="494.8213" r="10.7852" gradientTransform="matrix(1 0 0 -1 -8.3599 528.1934)" gradientUnits="userSpaceOnUse">
	<stop  offset="0.004" style="stop-color:#FFF2DB"/>
	<stop  offset="0.309" style="stop-color:#D7B189"/>
	<stop  offset="0.6098" style="stop-color:#A46F45"/>
	<stop  offset="0.7809" style="stop-color:#8C5027"/>
	<stop  offset="1" style="stop-color:#561815"/>
</radialGradient>
<ellipse fill="url(#SVGID_10_)" cx="227.73" cy="33.372" rx="3.793" ry="14.774"/>
<radialGradient id="SVGID_11_" cx="261.4839" cy="437.7686" r="10.7852" gradientTransform="matrix(1 0 0 -1 -8.3599 528.1934)" gradientUnits="userSpaceOnUse">
	<stop  offset="0.004" style="stop-color:#FFF2DB"/>
	<stop  offset="0.309" style="stop-color:#D7B189"/>
	<stop  offset="0.6098" style="stop-color:#A46F45"/>
	<stop  offset="0.7809" style="stop-color:#8C5027"/>
	<stop  offset="1" style="stop-color:#561815"/>
</radialGradient>
<ellipse fill="url(#SVGID_11_)" cx="253.125" cy="90.425" rx="3.793" ry="14.774"/>
<radialGradient id="SVGID_12_" cx="317.521" cy="437.7686" r="10.7852" gradientTransform="matrix(1 0 0 -1 -8.3599 528.1934)" gradientUnits="userSpaceOnUse">
	<stop  offset="0.004" style="stop-color:#FFF2DB"/>
	<stop  offset="0.309" style="stop-color:#D7B189"/>
	<stop  offset="0.6098" style="stop-color:#A46F45"/>
	<stop  offset="0.7809" style="stop-color:#8C5027"/>
	<stop  offset="1" style="stop-color:#561815"/>
</radialGradient>
<ellipse fill="url(#SVGID_12_)" cx="309.161" cy="90.425" rx="3.793" ry="14.774"/>
<text transform="matrix(1 0 0 1 0.2969 72.2451)" font-family="'TrajanPro-Regular'" font-size="11">A taste of African Pride</text>
</svg>
