<?xml version="1.0" encoding="UTF-8" standalone="no"?>
<!-- Generator: Adobe Illustrator 14.0.0, SVG Export Plug-In . SVG Version: 6.00 Build 43363)  -->

<svg
   xmlns:dc="http://purl.org/dc/elements/1.1/"
   xmlns:cc="http://creativecommons.org/ns#"
   xmlns:rdf="http://www.w3.org/1999/02/22-rdf-syntax-ns#"
   xmlns:svg="http://www.w3.org/2000/svg"
   xmlns="http://www.w3.org/2000/svg"
   xmlns:xlink="http://www.w3.org/1999/xlink"
   xmlns:sodipodi="http://sodipodi.sourceforge.net/DTD/sodipodi-0.dtd"
   xmlns:inkscape="http://www.inkscape.org/namespaces/inkscape"
   version="1.1"
   id="Layer_1"
   x="0px"
   y="0px"
   width="334.958px"
   height="126.198px"
   viewBox="94.14 169.321 334.958 126.198"
   enable-background="new 94.14 169.321 334.958 126.198"
   xml:space="preserve"
   inkscape:version="0.91 r13725"
   sodipodi:docname="Logo 1.svg"><metadata
   id="metadata3527"><rdf:RDF><cc:Work
       rdf:about=""><dc:format>image/svg+xml</dc:format><dc:type
         rdf:resource="http://purl.org/dc/dcmitype/StillImage" /><dc:title></dc:title></cc:Work></rdf:RDF></metadata><defs
   id="defs3525"><radialGradient
     inkscape:collect="always"
     xlink:href="#SVGID_12_"
     id="radialGradient5980"
     cx="297.01413"
     cy="217.39523"
     fx="297.01413"
     fy="217.39523"
     r="167.33"
     gradientTransform="matrix(0.29233701,0.16618665,-0.17945532,0.31567777,226.95262,115.54816)"
     gradientUnits="userSpaceOnUse" /></defs><sodipodi:namedview
   pagecolor="#ffffff"
   bordercolor="#666666"
   borderopacity="1"
   objecttolerance="10"
   gridtolerance="10"
   guidetolerance="10"
   inkscape:pageopacity="0"
   inkscape:pageshadow="2"
   inkscape:window-width="1366"
   inkscape:window-height="705"
   id="namedview3523"
   showgrid="false"
   inkscape:zoom="2.6922847"
   inkscape:cx="167.628"
   inkscape:cy="63.098497"
   inkscape:window-x="-8"
   inkscape:window-y="-8"
   inkscape:window-maximized="1"
   inkscape:current-layer="g3348" />
<g
   id="g3348">
	<g
   id="g3350">
		
			<radialGradient
   id="SVGID_1_"
   cx="118.3284"
   cy="669.4419"
   r="22.0424"
   gradientTransform="matrix(1 0 0 -1 -8.3599 866.835)"
   gradientUnits="userSpaceOnUse">
			<stop
   offset="0.004"
   style="stop-color:#FFF2DB"
   id="stop3353" />
			<stop
   offset="0.309"
   style="stop-color:#D7B189"
   id="stop3355" />
			<stop
   offset="0.6098"
   style="stop-color:#A46F45"
   id="stop3357" />
			<stop
   offset="0.7809"
   style="stop-color:#8C5027"
   id="stop3359" />
			<stop
   offset="1"
   style="stop-color:#561815"
   id="stop3361" />
		</radialGradient>
		
		
			<radialGradient
   id="SVGID_2_"
   cx="158.45"
   cy="665.7271"
   r="23.8501"
   gradientTransform="matrix(1 0 0 -1 -8.3599 866.835)"
   gradientUnits="userSpaceOnUse">
			<stop
   offset="0.004"
   style="stop-color:#FFF2DB"
   id="stop3366" />
			<stop
   offset="0.309"
   style="stop-color:#D7B189"
   id="stop3368" />
			<stop
   offset="0.6098"
   style="stop-color:#A46F45"
   id="stop3370" />
			<stop
   offset="0.7809"
   style="stop-color:#8C5027"
   id="stop3372" />
			<stop
   offset="1"
   style="stop-color:#561815"
   id="stop3374" />
		</radialGradient>
		
		
			<radialGradient
   id="SVGID_3_"
   cx="198.3572"
   cy="665.2329"
   r="18.9966"
   gradientTransform="matrix(1 0 0 -1 -8.3599 866.835)"
   gradientUnits="userSpaceOnUse">
			<stop
   offset="0.004"
   style="stop-color:#FFF2DB"
   id="stop3379" />
			<stop
   offset="0.309"
   style="stop-color:#D7B189"
   id="stop3381" />
			<stop
   offset="0.6098"
   style="stop-color:#A46F45"
   id="stop3383" />
			<stop
   offset="0.7809"
   style="stop-color:#8C5027"
   id="stop3385" />
			<stop
   offset="1"
   style="stop-color:#561815"
   id="stop3387" />
		</radialGradient>
		
		
			<radialGradient
   id="SVGID_4_"
   cx="246.6506"
   cy="665.1616"
   r="23.7043"
   gradientTransform="matrix(1 0 0 -1 -8.3599 866.835)"
   gradientUnits="userSpaceOnUse">
			<stop
   offset="0.004"
   style="stop-color:#FFF2DB"
   id="stop3392" />
			<stop
   offset="0.309"
   style="stop-color:#D7B189"
   id="stop3394" />
			<stop
   offset="0.6098"
   style="stop-color:#A46F45"
   id="stop3396" />
			<stop
   offset="0.7809"
   style="stop-color:#8C5027"
   id="stop3398" />
			<stop
   offset="1"
   style="stop-color:#561815"
   id="stop3400" />
		</radialGradient>
		
		
			<radialGradient
   id="SVGID_5_"
   cx="288.613"
   cy="687.7681"
   r="0"
   gradientTransform="matrix(1 0 0 -1 -8.3599 866.835)"
   gradientUnits="userSpaceOnUse">
			<stop
   offset="0.004"
   style="stop-color:#FFF2DB"
   id="stop3405" />
			<stop
   offset="0.309"
   style="stop-color:#D7B189"
   id="stop3407" />
			<stop
   offset="0.6098"
   style="stop-color:#A46F45"
   id="stop3409" />
			<stop
   offset="0.7809"
   style="stop-color:#8C5027"
   id="stop3411" />
			<stop
   offset="1"
   style="stop-color:#561815"
   id="stop3413" />
		</radialGradient>
		<path
   d="M280.253,179.067"
   id="path3415"
   fill="url(#SVGID_5_)" />
		
			<radialGradient
   id="SVGID_6_"
   cx="329.97"
   cy="665.1978"
   r="24.1161"
   gradientTransform="matrix(1 0 0 -1 -8.3599 866.835)"
   gradientUnits="userSpaceOnUse">
			<stop
   offset="0.004"
   style="stop-color:#FFF2DB"
   id="stop3418" />
			<stop
   offset="0.309"
   style="stop-color:#D7B189"
   id="stop3420" />
			<stop
   offset="0.6098"
   style="stop-color:#A46F45"
   id="stop3422" />
			<stop
   offset="0.7809"
   style="stop-color:#8C5027"
   id="stop3424" />
			<stop
   offset="1"
   style="stop-color:#561815"
   id="stop3426" />
		</radialGradient>
		
		
			<radialGradient
   id="SVGID_7_"
   cx="386.6135"
   cy="665.3755"
   r="24.2301"
   gradientTransform="matrix(1 0 0 -1 -8.3599 866.835)"
   gradientUnits="userSpaceOnUse">
			<stop
   offset="0.004"
   style="stop-color:#FFF2DB"
   id="stop3431" />
			<stop
   offset="0.309"
   style="stop-color:#D7B189"
   id="stop3433" />
			<stop
   offset="0.6098"
   style="stop-color:#A46F45"
   id="stop3435" />
			<stop
   offset="0.7809"
   style="stop-color:#8C5027"
   id="stop3437" />
			<stop
   offset="1"
   style="stop-color:#561815"
   id="stop3439" />
		</radialGradient>
		
		
			<radialGradient
   id="SVGID_8_"
   cx="288.2942"
   cy="634.4146"
   r="52.7658"
   gradientTransform="matrix(1 0 0 -1 -8.3599 866.835)"
   gradientUnits="userSpaceOnUse">
			<stop
   offset="0.004"
   style="stop-color:#FFF2DB"
   id="stop3444" />
			<stop
   offset="0.309"
   style="stop-color:#D7B189"
   id="stop3446" />
			<stop
   offset="0.6098"
   style="stop-color:#A46F45"
   id="stop3448" />
			<stop
   offset="0.7809"
   style="stop-color:#8C5027"
   id="stop3450" />
			<stop
   offset="1"
   style="stop-color:#561815"
   id="stop3452" />
		</radialGradient>
		
		
			<radialGradient
   id="SVGID_9_"
   cx="355.6262"
   cy="607.0894"
   r="24.1161"
   gradientTransform="matrix(1 0 0 -1 -8.3599 866.835)"
   gradientUnits="userSpaceOnUse">
			<stop
   offset="0.004"
   style="stop-color:#FFF2DB"
   id="stop3457" />
			<stop
   offset="0.309"
   style="stop-color:#D7B189"
   id="stop3459" />
			<stop
   offset="0.6098"
   style="stop-color:#A46F45"
   id="stop3461" />
			<stop
   offset="0.7809"
   style="stop-color:#8C5027"
   id="stop3463" />
			<stop
   offset="1"
   style="stop-color:#561815"
   id="stop3465" />
		</radialGradient>
		
		
			<radialGradient
   id="SVGID_10_"
   cx="412.8"
   cy="607.0894"
   r="24.1161"
   gradientTransform="matrix(1 0 0 -1 -8.3599 866.835)"
   gradientUnits="userSpaceOnUse">
			<stop
   offset="0.004"
   style="stop-color:#FFF2DB"
   id="stop3470" />
			<stop
   offset="0.309"
   style="stop-color:#D7B189"
   id="stop3472" />
			<stop
   offset="0.6098"
   style="stop-color:#A46F45"
   id="stop3474" />
			<stop
   offset="0.7809"
   style="stop-color:#8C5027"
   id="stop3476" />
			<stop
   offset="1"
   style="stop-color:#561815"
   id="stop3478" />
		</radialGradient>
		
	</g>
	
		<radialGradient
   id="SVGID_11_"
   cx="330.2297"
   cy="664.1421"
   r="10.7852"
   gradientTransform="matrix(1 0 0 -1 -8.3599 866.835)"
   gradientUnits="userSpaceOnUse">
		<stop
   offset="0.004"
   style="stop-color:#FFF2DB"
   id="stop3483" />
		<stop
   offset="0.309"
   style="stop-color:#D7B189"
   id="stop3485" />
		<stop
   offset="0.6098"
   style="stop-color:#A46F45"
   id="stop3487" />
		<stop
   offset="0.7809"
   style="stop-color:#8C5027"
   id="stop3489" />
		<stop
   offset="1"
   style="stop-color:#561815"
   id="stop3491" />
	</radialGradient>
	
	
		<radialGradient
   id="SVGID_12_"
   cx="355.6243"
   cy="607.0894"
   r="10.7852"
   gradientTransform="matrix(1 0 0 -1 -8.3599 866.835)"
   gradientUnits="userSpaceOnUse">
		<stop
   offset="0.004"
   style="stop-color:#FFF2DB"
   id="stop3496" />
		<stop
   offset="0.18647979"
   style="stop-color:#D7B189"
   id="stop3498" />
		<stop
   offset="0.6098"
   style="stop-color:#A46F45"
   id="stop3500" />
		<stop
   offset="0.7809"
   style="stop-color:#8C5027"
   id="stop3502" />
		<stop
   offset="1"
   style="stop-color:#561815"
   id="stop3504" />
	</radialGradient>
	
	
		<radialGradient
   id="SVGID_13_"
   cx="411.6614"
   cy="607.0894"
   r="10.7852"
   gradientTransform="matrix(1 0 0 -1 -8.3599 866.835)"
   gradientUnits="userSpaceOnUse">
		<stop
   offset="0.004"
   style="stop-color:#FFF2DB"
   id="stop3509" />
		<stop
   offset="0.309"
   style="stop-color:#D7B189"
   id="stop3511" />
		<stop
   offset="0.6098"
   style="stop-color:#A46F45"
   id="stop3513" />
		<stop
   offset="0.7809"
   style="stop-color:#8C5027"
   id="stop3515" />
		<stop
   offset="1"
   style="stop-color:#561815"
   id="stop3517" />
	</radialGradient>
	
	<g
   style="font-size:13.19615555px;font-family:TrajanPro-Regular;fill-opacity:1;fill:url(#radialGradient5980)"
   id="text3521"><path
     id="path4514"
     style="font-size:13.19615555px;font-family:TrajanPro-Regular;fill-opacity:1.0;fill:url(#radialGradient5980)"
     d="m 246.42294,239.77218 -5.30295,0 q 0,0.66368 0.19975,1.15982 0.19974,0.4897 0.54769,0.80543 0.33506,0.30928 0.79254,0.46393 0.46393,0.15464 1.01807,0.15464 0.73455,0 1.47554,-0.28996 0.74744,-0.29639 1.06317,-0.5799 l 0.0644,0 0,1.3209 q -0.61212,0.25774 -1.25002,0.43171 -0.6379,0.17397 -1.34024,0.17397 -1.79127,0 -2.79645,-0.96651 -1.00517,-0.97296 -1.00517,-2.75779 0,-1.7655 0.96007,-2.8029 0.96651,-1.03739 2.53871,-1.03739 1.45622,0 2.24232,0.85053 0.79254,0.85054 0.79254,2.41629 l 0,0.65723 z m -1.17915,-0.92785 q -0.006,-0.95363 -0.48326,-1.47555 -0.47037,-0.52192 -1.43688,-0.52192 -0.97296,0 -1.55287,0.57347 -0.57347,0.57346 -0.65079,1.424 l 4.1238,0 z m -7.22953,4.40086 -1.21136,0 0,-0.75388 q -0.52192,0.45104 -1.08894,0.70234 -0.56703,0.25129 -1.2307,0.25129 -1.28869,0 -2.04901,-0.99229 -0.75388,-0.99229 -0.75388,-2.75135 0,-0.91496 0.25773,-1.63019 0.26418,-0.71522 0.70878,-1.2178 0.43815,-0.48971 1.01806,-0.74744 0.58636,-0.25774 1.21137,-0.25774 0.56702,0 1.00518,0.12242 0.43815,0.11599 0.92141,0.36728 l 0,-3.11862 1.21136,0 0,10.02598 z m -1.21136,-1.77194 0,-4.13024 q -0.4897,-0.21908 -0.87631,-0.30284 -0.38661,-0.0838 -0.84409,-0.0838 -1.01806,0 -1.58509,0.70878 -0.56702,0.70878 -0.56702,2.01035 0,1.28224 0.43816,1.95236 0.43815,0.66368 1.40466,0.66368 0.51548,0 1.04384,-0.22553 0.52836,-0.23196 0.98585,-0.59279 z m -6.90737,-6.6303 -1.366,0 0,-1.25647 1.366,0 0,1.25647 z m -0.0773,8.40224 -1.21136,0 0,-7.19731 1.21136,0 0,7.19731 z m -2.37765,-5.87641 -0.0644,0 q -0.27062,-0.0644 -0.52836,-0.0902 -0.25129,-0.0322 -0.59924,-0.0322 -0.56058,0 -1.08249,0.25129 -0.52192,0.24485 -1.00518,0.6379 l 0,5.10964 -1.21137,0 0,-7.19731 1.21137,0 0,1.06316 q 0.72167,-0.57991 1.26936,-0.81831 0.55413,-0.24485 1.1276,-0.24485 0.31573,0 0.45748,0.0193 0.14176,0.0129 0.42527,0.058 l 0,1.24358 z m -6.0826,-0.81832 q 0,0.6379 -0.22552,1.1856 -0.21908,0.54124 -0.61857,0.94074 -0.49614,0.49614 -1.1727,0.74744 -0.67656,0.24485 -1.70751,0.24485 l -1.2758,0 0,3.5761 -1.2758,0 0,-9.59427 2.60314,0 q 0.86342,0 1.46266,0.1482 0.59924,0.14175 1.06317,0.45104 0.54769,0.36727 0.84409,0.91497 0.30284,0.54769 0.30284,1.38533 z m -1.32735,0.0322 q 0,-0.49614 -0.17397,-0.86342 -0.17397,-0.36727 -0.52836,-0.59924 -0.30929,-0.19974 -0.70878,-0.28351 -0.39305,-0.0902 -0.99873,-0.0902 l -1.26291,0 0,3.83385 1.07605,0 q 0.77321,0 1.25647,-0.13532 0.48326,-0.14175 0.7861,-0.44459 0.30284,-0.30929 0.42527,-0.65079 0.12886,-0.3415 0.12886,-0.76677 z m -12.017,6.66253 -1.21137,0 0,-4.09802 q 0,-0.49615 -0.058,-0.92786 -0.058,-0.43815 -0.21263,-0.683 -0.16109,-0.27062 -0.46393,-0.39949 -0.30284,-0.13532 -0.7861,-0.13532 -0.49615,0 -1.03739,0.24486 -0.54125,0.24485 -1.0374,0.62501 l 0,5.37382 -1.21136,0 0,-7.19731 1.21136,0 0,0.79898 q 0.56702,-0.47037 1.17271,-0.73455 0.60568,-0.26418 1.24358,-0.26418 1.16626,0 1.77839,0.70233 0.61213,0.70234 0.61213,2.02324 l 0,4.67149 z m -8.36358,0 -1.20492,0 0,-0.76677 q -0.16109,0.10954 -0.43816,0.30929 -0.27062,0.1933 -0.52836,0.30928 -0.30284,0.1482 -0.69589,0.24486 -0.39305,0.10309 -0.92141,0.10309 -0.97296,0 -1.64952,-0.64434 -0.67656,-0.64435 -0.67656,-1.64308 0,-0.81832 0.34795,-1.3209 0.35438,-0.50904 1.00517,-0.79899 0.65723,-0.28995 1.57864,-0.39305 0.92141,-0.10309 1.97814,-0.15464 l 0,-0.18686 q 0,-0.41238 -0.1482,-0.68301 -0.14176,-0.27062 -0.41238,-0.42526 -0.25774,-0.1482 -0.61857,-0.19975 -0.36083,-0.0515 -0.75388,-0.0515 -0.47682,0 -1.06317,0.12887 -0.58635,0.12243 -1.21137,0.36083 l -0.0644,0 0,-1.23069 q 0.35439,-0.0966 1.02451,-0.21263 0.67011,-0.11599 1.3209,-0.11599 0.76033,0 1.3209,0.12887 0.56703,0.12243 0.97941,0.42527 0.40593,0.2964 0.61857,0.76677 0.21263,0.47037 0.21263,1.16626 l 0,4.88412 z m -1.20492,-1.77194 0,-2.00391 q -0.55414,0.0322 -1.30802,0.0967 -0.74744,0.0644 -1.18559,0.18686 -0.52192,0.1482 -0.84409,0.46393 -0.32217,0.30928 -0.32217,0.85698 0,0.61857 0.37372,0.93429 0.37371,0.30929 1.14048,0.30929 0.6379,0 1.16627,-0.24485 0.52836,-0.2513 0.9794,-0.59924 z m -5.9473,1.3209 q -0.60568,0.28996 -1.15337,0.45104 -0.54125,0.16109 -1.15338,0.16109 -0.77965,0 -1.43044,-0.22552 -0.65079,-0.23196 -1.11471,-0.69589 -0.47037,-0.46393 -0.72811,-1.17271 -0.25774,-0.70878 -0.25774,-1.65596 0,-1.7655 0.96652,-2.77068 0.97296,-1.00517 2.56448,-1.00517 0.61857,0 1.21137,0.17397 0.59924,0.17397 1.09538,0.42527 l 0,1.34667 -0.0644,0 q -0.55414,-0.43171 -1.14693,-0.66367 -0.58635,-0.23196 -1.14693,-0.23196 -1.03095,0 -1.63019,0.69589 -0.5928,0.68945 -0.5928,2.02968 0,1.30157 0.57991,2.00391 0.58635,0.69589 1.64308,0.69589 0.36727,0 0.74743,-0.0966 0.38017,-0.0967 0.68301,-0.2513 0.26418,-0.13531 0.49614,-0.28351 0.23197,-0.15464 0.36728,-0.26418 l 0.0644,0 0,1.33379 z m -7.60325,-7.9512 -1.36601,0 0,-1.25647 1.36601,0 0,1.25647 z m -0.0773,8.40224 -1.21137,0 0,-7.19731 1.21137,0 0,7.19731 z m -2.37765,-5.87641 -0.0644,0 q -0.27063,-0.0644 -0.52836,-0.0902 -0.2513,-0.0322 -0.59924,-0.0322 -0.56058,0 -1.0825,0.25129 -0.52192,0.24485 -1.00518,0.6379 l 0,5.10964 -1.21136,0 0,-7.19731 1.21136,0 0,1.06316 q 0.72167,-0.57991 1.26936,-0.81831 0.55414,-0.24485 1.1276,-0.24485 0.31573,0 0.45749,0.0193 0.14175,0.0129 0.42526,0.058 l 0,1.24358 z m -5.25784,-2.97687 -0.0644,0 q -0.19974,-0.058 -0.52191,-0.11598 -0.32218,-0.0644 -0.56703,-0.0644 -0.77965,0 -1.13404,0.34794 -0.34795,0.3415 -0.34795,1.24359 l 0,0.24485 2.18433,0 0,1.01806 -2.14567,0 0,6.17925 -1.21136,0 0,-6.17925 -0.81832,0 0,-1.01806 0.81832,0 0,-0.23841 q 0,-1.28224 0.6379,-1.96525 0.6379,-0.68945 1.84282,-0.68945 0.40594,0 0.72811,0.0387 0.32861,0.0387 0.59924,0.0902 l 0,1.10827 z m -5.23207,8.85328 -1.35957,0 -0.94074,-2.67402 -4.14957,0 -0.94074,2.67402 -1.29514,0 3.49235,-9.59427 1.70106,0 3.49235,9.59427 z m -2.69336,-3.76941 -1.68174,-4.71015 -1.68818,4.71015 3.36992,0 z m -10.37393,-5.08387 -0.0644,0 q -0.19975,-0.058 -0.52192,-0.11598 -0.32217,-0.0644 -0.56702,-0.0644 -0.77966,0 -1.13405,0.34794 -0.34794,0.3415 -0.34794,1.24359 l 0,0.24485 2.18432,0 0,1.01806 -2.14566,0 0,6.17925 -1.21137,0 0,-6.17925 -0.81832,0 0,-1.01806 0.81832,0 0,-0.23841 q 0,-1.28224 0.6379,-1.96525 0.6379,-0.68945 1.84282,-0.68945 0.40594,0 0.72811,0.0387 0.32862,0.0387 0.59924,0.0902 l 0,1.10827 z m -5.75399,5.25785 q 0,1.75905 -0.90208,2.77712 -0.90208,1.01806 -2.41629,1.01806 -1.52709,0 -2.42917,-1.01806 -0.89564,-1.01807 -0.89564,-2.77712 0,-1.75906 0.89564,-2.77712 0.90208,-1.02451 2.42917,-1.02451 1.51421,0 2.41629,1.02451 0.90208,1.01806 0.90208,2.77712 z m -1.25002,0 q 0,-1.39823 -0.54769,-2.07479 -0.5477,-0.683 -1.52066,-0.683 -0.98584,0 -1.53353,0.683 -0.54125,0.67656 -0.54125,2.07479 0,1.35312 0.54769,2.05545 0.54769,0.69589 1.52709,0.69589 0.96652,0 1.51421,-0.68944 0.55414,-0.6959 0.55414,-2.0619 z m -11.35978,0.12242 -5.30295,0 q 0,0.66368 0.19975,1.15982 0.19975,0.4897 0.54769,0.80543 0.33506,0.30928 0.79255,0.46393 0.46392,0.15464 1.01806,0.15464 0.73455,0 1.47555,-0.28996 0.74743,-0.29639 1.06316,-0.5799 l 0.0644,0 0,1.3209 q -0.61213,0.25774 -1.25003,0.43171 -0.6379,0.17397 -1.34023,0.17397 -1.79128,0 -2.79646,-0.96651 -1.00517,-0.97296 -1.00517,-2.75779 0,-1.7655 0.96007,-2.8029 0.96652,-1.03739 2.53871,-1.03739 1.45622,0 2.24232,0.85053 0.79254,0.85054 0.79254,2.41629 l 0,0.65723 z m -1.17915,-0.92785 q -0.006,-0.95363 -0.48325,-1.47555 -0.47038,-0.52192 -1.43689,-0.52192 -0.97296,0 -1.55287,0.57347 -0.57346,0.57346 -0.65079,1.424 l 4.1238,0 z m -6.31457,4.33643 q -0.3415,0.0902 -0.74743,0.1482 -0.3995,0.058 -0.71523,0.058 -1.10182,0 -1.67529,-0.5928 -0.57347,-0.59279 -0.57347,-1.90081 l 0,-3.8274 -0.81831,0 0,-1.01806 0.81831,0 0,-2.06835 1.21137,0 0,2.06835 2.50005,0 0,1.01806 -2.50005,0 0,3.27971 q 0,0.56702 0.0258,0.88919 0.0258,0.31573 0.18042,0.5928 0.14176,0.25774 0.38661,0.38016 0.25129,0.11598 0.76032,0.11598 0.2964,0 0.61857,-0.0838 0.32217,-0.0902 0.46393,-0.1482 l 0.0644,0 0,1.08894 z m -5.47692,-2.01035 q 0,0.98584 -0.81831,1.6173 -0.81187,0.63146 -2.22299,0.63146 -0.79898,0 -1.4691,-0.18686 -0.66367,-0.19331 -1.11471,-0.41883 l 0,-1.35956 0.0644,0 q 0.57347,0.43171 1.2758,0.68945 0.70233,0.25129 1.34668,0.25129 0.79898,0 1.25002,-0.25774 0.45104,-0.25773 0.45104,-0.81187 0,-0.42527 -0.24485,-0.64434 -0.24485,-0.21908 -0.94074,-0.37372 -0.25773,-0.058 -0.67656,-0.13532 -0.41238,-0.0773 -0.75388,-0.16752 -0.94718,-0.2513 -1.34668,-0.73456 -0.39305,-0.4897 -0.39305,-1.19848 0,-0.44459 0.18042,-0.83764 0.18686,-0.39305 0.56058,-0.70234 0.36083,-0.30284 0.91497,-0.47681 0.56057,-0.18042 1.25002,-0.18042 0.64435,0 1.30158,0.16109 0.66367,0.15464 1.10182,0.38016 l 0,1.29513 -0.0644,0 q -0.46393,-0.3415 -1.1276,-0.57346 -0.66368,-0.23841 -1.30158,-0.23841 -0.66367,0 -1.12115,0.25774 -0.45749,0.25129 -0.45749,0.75388 0,0.4446 0.27707,0.67012 0.27062,0.22552 0.87631,0.36727 0.33506,0.0773 0.74744,0.15464 0.41882,0.0773 0.69589,0.14176 0.84409,0.1933 1.30157,0.66367 0.45748,0.47682 0.45748,1.26292 z m -7.48727,2.07478 -1.20492,0 0,-0.76677 q -0.16109,0.10954 -0.43815,0.30929 -0.27063,0.1933 -0.52837,0.30928 -0.30284,0.1482 -0.69589,0.24486 -0.39305,0.10309 -0.92141,0.10309 -0.97296,0 -1.64952,-0.64434 -0.67656,-0.64435 -0.67656,-1.64308 0,-0.81832 0.34795,-1.3209 0.35439,-0.50904 1.00517,-0.79899 0.65723,-0.28995 1.57865,-0.39305 0.92141,-0.10309 1.97813,-0.15464 l 0,-0.18686 q 0,-0.41238 -0.1482,-0.68301 -0.14175,-0.27062 -0.41238,-0.42526 -0.25774,-0.1482 -0.61857,-0.19975 -0.36083,-0.0515 -0.75388,-0.0515 -0.47681,0 -1.06317,0.12887 -0.58635,0.12243 -1.21136,0.36083 l -0.0644,0 0,-1.23069 q 0.35439,-0.0966 1.02451,-0.21263 0.67012,-0.11599 1.3209,-0.11599 0.76033,0 1.32091,0.12887 0.56702,0.12243 0.9794,0.42527 0.40594,0.2964 0.61857,0.76677 0.21263,0.47037 0.21263,1.16626 l 0,4.88412 z m -1.20492,-1.77194 0,-2.00391 q -0.55414,0.0322 -1.30802,0.0967 -0.74744,0.0644 -1.18559,0.18686 -0.52192,0.1482 -0.84409,0.46393 -0.32217,0.30928 -0.32217,0.85698 0,0.61857 0.37372,0.93429 0.37372,0.30929 1.14049,0.30929 0.6379,0 1.16626,-0.24485 0.52836,-0.2513 0.9794,-0.59924 z m -5.85708,1.70751 q -0.34151,0.0902 -0.74744,0.1482 -0.39949,0.058 -0.71522,0.058 -1.10183,0 -1.6753,-0.5928 -0.57346,-0.59279 -0.57346,-1.90081 l 0,-3.8274 -0.81832,0 0,-1.01806 0.81832,0 0,-2.06835 1.21136,0 0,2.06835 2.50006,0 0,1.01806 -2.50006,0 0,3.27971 q 0,0.56702 0.0258,0.88919 0.0258,0.31573 0.18041,0.5928 0.14176,0.25774 0.38661,0.38016 0.25129,0.11598 0.76033,0.11598 0.29639,0 0.61857,-0.0838 0.32217,-0.0902 0.46392,-0.1482 l 0.0644,0 0,1.08894 z m -9.73603,0.0644 -1.35957,0 -0.94074,-2.67402 -4.149572,0 -0.940742,2.67402 -1.29513,0 3.492341,-9.59427 1.701067,0 3.492346,9.59427 z m -2.69336,-3.76941 -1.681736,-4.71015 -1.68818,4.71015 3.369916,0 z M 407.09399,259.746 a 3.793,14.774 0 0 1 -3.793,14.774 3.793,14.774 0 0 1 -3.793,-14.774 3.793,14.774 0 0 1 3.793,-14.774 3.793,14.774 0 0 1 3.793,14.774 z m -56.03598,0 a 3.793,14.774 0 0 1 -3.793,14.774 3.793,14.774 0 0 1 -3.793,-14.774 3.793,14.774 0 0 1 3.793,-14.774 3.793,14.774 0 0 1 3.793,14.774 z M 325.663,202.69299 a 3.793,14.774 0 0 1 -3.793,14.774 3.793,14.774 0 0 1 -3.793,-14.774 3.793,14.774 0 0 1 3.793,-14.774 3.793,14.774 0 0 1 3.793,14.774 z m 78.812,33.49101 c 14.011,0 24.623,8.562 24.623,22.571 0,13.443 -9.977,24.552 -24.977,24.552 -17.053,0 -24.34,-12.807 -24.34,-23.632 0,-9.694 7.5,-23.491 24.694,-23.491 z m 1.416,44.647 c 5.588,0 16.838,-2.972 16.838,-20.377 0,-14.434 -8.772,-22.005 -18.606,-22.005 -10.4,0 -17.902,6.509 -17.902,19.599 -0.002,14.009 8.42,22.783 19.67,22.783 z m -58.59,-44.647 c 14.01,0 24.623,8.562 24.623,22.571 0,13.443 -9.977,24.552 -24.977,24.552 -17.054,0 -24.34,-12.807 -24.34,-23.632 10e-4,-9.694 7.501,-23.491 24.694,-23.491 z m 1.414,44.647 c 5.59,0 16.84,-2.972 16.84,-20.377 0,-14.434 -8.772,-22.005 -18.606,-22.005 -10.402,0 -17.902,6.509 -17.902,19.599 -0.002,14.009 8.418,22.783 19.668,22.783 z M 281.006,205.5 c -2.547,6.792 -13.24,67.689 -15.787,74.269 -1.133,2.972 -1.486,15.75 -2.335,15.75 -0.708,0 -1.062,-12.778 -2.477,-17.589 l -12.596,-41.958 c -1.132,-3.75 -2.052,-4.811 -3.892,-5.519 -0.92,-0.354 -2.688,-0.425 -3.185,-0.425 -0.354,0 -0.637,-0.071 -0.637,-0.495 0,-0.354 0.424,-0.495 1.132,-0.495 3.681,0 7.571,0.212 8.35,0.212 0.638,0 3.751,-0.212 7.288,-0.212 0.99,0 1.272,0.212 1.272,0.495 0,0.424 -0.354,0.495 -0.707,0.495 -0.565,0 -1.91,0 -2.76,0.425 -0.425,0.212 -0.92,0.778 -0.92,1.698 0,0.92 0.637,3.396 1.345,6.51 1.063,4.528 8.42,23.495 9.481,27.245 l 0.141,0 14.001,-93.33 c 1.062,-2.901 1.344,-3.255 1.77,-3.255 0.494,0 0.92,0.92 1.769,3.326 l 15.08,93.118 0.283,0 c 1.91,-6.51 8.421,-20.029 10.897,-29.085 0.706,-2.618 0.776,-3.608 0.776,-4.528 0,-1.273 -0.776,-2.123 -4.033,-2.123 -0.354,0 -0.637,-0.212 -0.637,-0.495 0,-0.354 0.354,-0.495 1.203,-0.495 3.609,0 6.58,0.212 7.217,0.212 0.496,0 3.539,-0.212 5.732,-0.212 0.637,0 0.99,0.141 0.99,0.424 0,0.354 -0.214,0.566 -0.638,0.566 -0.283,0 -1.629,0.071 -2.405,0.354 -2.123,0.778 -3.255,3.75 -4.601,7.642 -3.113,8.986 -10.26,31.486 -13.02,39.41 -1.84,5.236 -2.192,18.085 -2.972,18.085 -0.708,0 -1.133,-12.919 -2.123,-15.679 m 67.902,-63.628 c 0.142,4.953 0.708,6.438 2.405,6.863 1.133,0.283 2.548,0.354 3.112,0.354 0.283,0 0.496,0.212 0.496,0.495 0,0.354 -0.425,0.496 -1.133,0.496 -3.537,0 -6.014,-0.212 -6.58,-0.212 -0.565,0 -3.184,0.212 -6.014,0.212 -0.638,0 -0.991,-0.071 -0.991,-0.496 0,-0.283 0.213,-0.495 0.495,-0.495 0.496,0 1.628,-0.071 2.548,-0.354 1.557,-0.425 1.769,-2.052 1.769,-7.5 l 0,-34.458 c 0,-2.406 0.354,-3.042 0.851,-3.042 0.707,0 1.769,1.203 2.405,1.84 0.989,0.99 10.047,10.613 19.67,20.519 6.154,6.368 12.807,13.514 14.717,15.495 l -0.637,-30.142 c -0.07,-3.892 -0.426,-5.236 -2.335,-5.59 -1.133,-0.212 -2.548,-0.283 -3.042,-0.283 -0.426,0 -0.496,-0.354 -0.496,-0.566 0,-0.354 0.496,-0.424 1.203,-0.424 2.829,0 5.802,0.142 6.51,0.142 0.707,0 2.759,-0.142 5.307,-0.142 0.637,0 1.132,0.071 1.132,0.424 0,0.212 -0.282,0.566 -0.707,0.566 -0.282,0 -0.777,0 -1.485,0.141 -2.053,0.425 -2.193,1.627 -2.193,5.236 l -0.142,35.236 c 0,3.962 -0.07,4.316 -0.495,4.316 -0.637,0 -1.273,-0.495 -4.74,-3.679 -0.638,-0.566 -9.623,-9.411 -16.203,-16.273 -7.217,-7.571 -14.222,-14.93 -16.133,-17.052 l 0.706,28.373 z m -40.263,-38.137 c 14.01,0 24.622,8.562 24.622,22.571 0,13.443 -9.977,24.552 -24.977,24.552 -17.052,0 -24.34,-12.807 -24.34,-23.632 10e-4,-9.693 7.501,-23.491 24.695,-23.491 z m 1.416,44.647 c 5.59,0 16.84,-2.972 16.84,-20.377 0,-14.434 -8.773,-22.005 -18.608,-22.005 -10.401,0 -17.901,6.51 -17.901,19.599 -0.002,14.009 8.419,22.783 19.669,22.783 z M 256.97,206.944 c 0,5.802 0.071,10.542 0.354,13.019 0.213,1.769 0.354,2.901 2.265,3.184 0.849,0.142 2.264,0.283 2.759,0.283 0.425,0 0.566,0.283 0.566,0.495 0,0.283 -0.354,0.496 -1.063,0.496 -3.396,0 -7.357,-0.212 -7.712,-0.212 -0.283,0 -4.315,0.212 -6.155,0.212 -0.708,0 -0.99,-0.142 -0.99,-0.496 0,-0.212 0.142,-0.495 0.495,-0.495 0.565,0 1.273,-0.142 1.84,-0.283 1.272,-0.283 1.485,-1.486 1.697,-3.254 0.283,-2.477 0.283,-7.005 0.283,-12.807 l 0,-6.014 c 0,-0.283 -0.142,-0.354 -0.354,-0.354 l -25.969,0 c -0.212,0 -0.354,0.071 -0.354,0.354 l 0,6.014 c 0,5.802 0,10.401 0.283,12.877 0.212,1.769 0.424,2.901 2.264,3.184 0.92,0.142 2.265,0.283 2.83,0.283 0.354,0 0.495,0.283 0.495,0.495 0,0.283 -0.282,0.496 -0.99,0.496 -3.467,0 -7.43,-0.212 -7.712,-0.212 -0.354,0 -4.316,0.212 -6.227,0.212 -0.638,0 -0.991,-0.142 -0.991,-0.496 0,-0.212 0.142,-0.495 0.496,-0.495 0.564,0 1.344,-0.142 1.91,-0.283 1.202,-0.283 1.344,-1.415 1.627,-3.184 0.354,-2.477 0.354,-7.217 0.354,-13.019 l 0,-10.613 c 0,-9.34 0,-11.038 -0.141,-12.948 -0.143,-2.052 -0.496,-3.042 -2.548,-3.326 -0.495,-0.07 -1.558,-0.141 -2.122,-0.141 -0.213,0 -0.495,-0.283 -0.495,-0.496 0,-0.354 0.282,-0.495 0.99,-0.495 2.829,0 6.792,0.142 7.146,0.142 0.282,0 4.245,-0.142 6.155,-0.142 0.708,0 0.99,0.142 0.99,0.495 0,0.212 -0.282,0.496 -0.495,0.496 -0.426,0 -0.85,0 -1.558,0.141 -1.697,0.354 -2.052,1.203 -2.192,3.326 -0.07,1.911 -0.07,3.75 -0.07,13.09 l 0,1.273 c 0,0.354 0.142,0.354 0.354,0.354 l 25.969,0 c 0.212,0 0.354,0 0.354,-0.354 l 0,-1.273 c 0,-9.34 -0.071,-11.179 -0.142,-13.09 -0.143,-2.052 -0.425,-3.042 -2.478,-3.326 -0.495,-0.07 -1.557,-0.141 -2.123,-0.141 -0.281,0 -0.495,-0.283 -0.495,-0.496 0,-0.354 0.283,-0.495 0.991,-0.495 2.759,0 6.792,0.142 7.075,0.142 0.354,0 4.316,-0.142 6.155,-0.142 0.708,0 1.062,0.142 1.062,0.495 0,0.212 -0.282,0.496 -0.564,0.496 -0.425,0 -0.778,0 -1.558,0.141 -1.628,0.354 -1.98,1.203 -2.123,3.326 -0.142,1.911 -0.142,3.608 -0.142,12.948 l 0,10.613 0.004,0 z m -78.895,16.628 c -0.85,-0.425 -0.921,-0.637 -0.921,-2.264 0,-2.972 0.283,-5.377 0.354,-6.368 0,-0.637 0.142,-0.99 0.496,-0.99 0.354,0 0.564,0.212 0.564,0.708 0,0.495 0,1.344 0.213,2.193 0.99,4.387 5.66,5.943 9.835,5.943 6.155,0 9.34,-3.467 9.34,-7.996 0,-4.316 -2.335,-6.368 -7.854,-10.472 l -2.83,-2.123 c -6.722,-5.023 -8.915,-8.703 -8.915,-12.877 0,-7.075 5.591,-11.321 13.797,-11.321 2.478,0 4.953,0.354 6.438,0.708 1.203,0.283 1.698,0.283 2.193,0.283 0.496,0 0.637,0.071 0.637,0.424 0,0.283 -0.282,2.264 -0.282,6.368 0,0.92 -0.071,1.344 -0.495,1.344 -0.425,0 -0.496,-0.283 -0.565,-0.778 -0.071,-0.708 -0.566,-2.335 -0.92,-2.972 -0.426,-0.708 -2.478,-2.972 -8.066,-2.972 -4.528,0 -8.278,2.264 -8.278,6.509 0,3.821 1.911,6.014 8.066,10.189 l 1.769,1.203 c 7.571,5.165 10.189,9.34 10.189,14.505 0,3.538 -1.345,7.358 -5.803,10.26 -2.617,1.698 -6.51,2.123 -9.905,2.123 -2.902,0 -6.51,-0.425 -9.057,-1.627 z m -30.072,-43.444 c 0.778,-1.981 1.062,-2.334 1.484,-2.334 0.638,0 0.851,0.849 1.486,2.193 1.132,2.547 11.108,27.382 14.929,36.509 2.266,5.377 3.964,6.156 5.308,6.581 0.92,0.283 1.84,0.354 2.477,0.354 0.354,0 0.778,0.142 0.778,0.495 0,0.354 -0.707,0.496 -1.415,0.496 -0.92,0 -5.519,0 -9.835,-0.142 -1.203,-0.071 -2.193,-0.071 -2.193,-0.425 0,-0.283 0.143,-0.283 0.426,-0.424 0.354,-0.142 0.989,-0.637 0.564,-1.627 l -5.589,-13.797 c -0.142,-0.283 -0.213,-0.354 -0.566,-0.354 l -14.362,0 c -0.283,0 -0.495,0.142 -0.638,0.495 l -3.538,9.623 c -0.564,1.486 -0.92,2.972 -0.92,4.033 0,1.203 1.063,1.627 2.123,1.627 l 0.566,0 c 0.495,0 0.637,0.212 0.637,0.495 0,0.354 -0.354,0.496 -0.92,0.496 -1.486,0 -4.882,-0.212 -5.59,-0.212 -0.637,0 -3.75,0.212 -6.297,0.212 -0.778,0 -1.203,-0.142 -1.203,-0.496 0,-0.283 0.283,-0.495 0.566,-0.495 0.424,0 1.344,-0.071 1.839,-0.142 2.831,-0.354 4.032,-2.477 5.235,-5.519 l 14.648,-37.642 z m 6.934,25.047 c 0.283,0 0.283,-0.142 0.212,-0.424 l -6.154,-16.486 c -0.354,-0.92 -0.707,-0.92 -1.063,0 l -5.802,16.486 c -0.07,0.283 0,0.424 0.212,0.424 l 12.595,0 z m -54.344,-13.726 c 0,-11.038 0,-13.019 -0.141,-15.283 -0.143,-2.406 -0.708,-3.538 -3.043,-4.033 -0.566,-0.142 -1.77,-0.212 -2.405,-0.212 -0.283,0 -0.566,-0.142 -0.566,-0.424 0,-0.425 0.354,-0.566 1.132,-0.566 1.629,0 3.538,0 5.096,0.07 l 2.899,0.142 c 1.416,0.071 15.778,0 17.406,-0.071 1.345,-0.071 2.478,-0.071 3.113,-0.283 0.425,-0.142 0.707,-0.425 0.99,-0.425 0.282,0 0.425,0.283 0.425,0.637 0,0.496 -0.354,1.345 -0.566,3.326 -0.07,0.708 -0.212,3.821 -0.354,4.67 -0.07,0.354 -0.212,0.778 -0.566,0.778 -0.354,0 -0.495,-0.354 -0.495,-0.849 0,-0.566 -0.212,-1.769 -0.637,-2.688 -0.425,-0.92 -2.052,-2.194 -4.813,-2.264 l -10.896,-0.212 c -0.425,0 -0.638,0.212 -0.638,0.778 l 0,19.528 c 0,0.424 0.07,0.637 0.496,0.637 l 9.057,-0.071 c 1.202,0 2.193,0 3.184,-0.071 1.698,-0.142 2.618,-0.354 3.255,-1.273 0.283,-0.354 0.495,-0.708 0.778,-0.708 0.283,0 0.354,0.212 0.354,0.566 0,0.425 -0.354,1.627 -0.565,3.962 -0.142,1.415 -0.283,4.245 -0.283,4.741 0,0.637 0,1.344 -0.495,1.344 -0.354,0 -0.496,-0.283 -0.496,-0.637 -0.069,-0.708 -0.142,-1.698 -0.424,-2.547 -0.354,-0.991 -1.485,-2.264 -3.68,-2.547 -1.77,-0.212 -9.481,-0.212 -10.684,-0.212 -0.354,0 -0.496,0.142 -0.496,0.637 l 0,6.014 c 0,6.792 0,12.382 0.354,15.354 0.212,2.052 0.637,3.608 2.759,3.891 0.991,0.142 2.548,0.283 3.186,0.283 0.425,0 0.564,0.212 0.564,0.424 0,0.354 -0.354,0.566 -1.132,0.566 -3.892,0 -8.349,-0.212 -8.703,-0.212 -0.354,0 -4.811,0.212 -6.934,0.212 -0.778,0 -1.132,-0.142 -1.132,-0.566 0,-0.212 0.142,-0.424 0.564,-0.424 0.638,0 1.486,-0.142 2.123,-0.283 1.415,-0.283 1.77,-1.839 2.052,-3.891 0.354,-2.972 0.354,-8.562 0.354,-15.354 l 0.003,-12.454 0,0 z" /></g>
</g>
</svg>