<?xml version="1.0" encoding="UTF-8" standalone="no"?>
<!-- Generator: Adobe Illustrator 14.0.0, SVG Export Plug-In . SVG Version: 6.00 Build 43363)  -->
<svg xmlns:rdf="http://www.w3.org/1999/02/22-rdf-syntax-ns#" xmlns="http://www.w3.org/2000/svg"
	 enable-background="new 94.14 169.321 334.958 126.198" xml:space="preserve" height="126.2px"
	 viewBox="94.14 169.321 334.958 126.198" width="334.96px" version="1.1" y="0px" x="0px"
	 xmlns:cc="http://creativecommons.org/ns#"
	 xmlns:dc="http://purl.org/dc/elements/1.1/"
	 xmlns:xsi="http://www.w3.org/2001/XMLSchema-instance"
	 xsi:schemaLocation="http://www.w3.org/1999/02/22-rdf-syntax-ns# "><metadata><rdf:RDF><cc:Work rdf:about=""><dc:format>image/svg+xml</dc:format><dc:type
		rdf:resource="http://purl.org/dc/dcmitype/StillImage"/><dc:title/></cc:Work></rdf:RDF></metadata>
	<defs><radialGradient id="radialGradient5980" gradientUnits="userSpaceOnUse" cy="217.4" cx="297.01" gradientTransform="matrix(.29234 .16619 -.17946 .31568 226.95 115.55)" r="167.33"><stop stop-color="#FFF2DB" offset=".004"/><stop
			stop-color="#D7B189" offset=".18648"/><stop stop-color="#A46F45" offset=".6098"/><stop stop-color="#8C5027"
																								   offset=".7809"/><stop
			stop-color="#561815" offset="1"/></radialGradient></defs>
	<radialGradient id="SVGID_5_" gradientUnits="userSpaceOnUse" cy="687.77" cx="288.61"
					gradientTransform="matrix(1 0 0 -1 -8.3599 866.84)" r="0">
			<stop stop-color="#FFF2DB" offset=".004"/>
		<stop stop-color="#D7B189" offset=".309"/>
		<stop stop-color="#A46F45" offset=".6098"/>
		<stop stop-color="#8C5027" offset=".7809"/>
		<stop stop-color="#561815" offset="1"/>
		</radialGradient>
	<path fill="url(#SVGID_5_)" d="m280.25 179.07"/>
	<g fill="url(#radialGradient5980)"><path fill="url(#radialGradient5980)" d="m246.42 239.77h-5.303q0 0.66368 0.19975 1.1598 0.19974 0.4897 0.54769 0.80543 0.33506 0.30928 0.79254 0.46393 0.46393 0.15464 1.0181 0.15464 0.73455 0 1.4755-0.28996 0.74744-0.29639 1.0632-0.5799h0.0644v1.3209q-0.61212 0.25774-1.25 0.43171-0.6379 0.17397-1.3402 0.17397-1.7913 0-2.7964-0.96651-1.0052-0.97296-1.0052-2.7578 0-1.7655 0.96007-2.8029 0.96651-1.0374 2.5387-1.0374 1.4562 0 2.2423 0.85053 0.79254 0.85054 0.79254 2.4163v0.65723zm-1.1792-0.92785q-0.006-0.95363-0.48326-1.4756-0.47037-0.52192-1.4369-0.52192-0.97296 0-1.5529 0.57347-0.57347 0.57346-0.65079 1.424h4.1238zm-7.2295 4.4009h-1.2114v-0.75388q-0.52192 0.45104-1.0889 0.70234-0.56703 0.25129-1.2307 0.25129-1.2887 0-2.049-0.99229-0.75388-0.99229-0.75388-2.7514 0-0.91496 0.25773-1.6302 0.26418-0.71522 0.70878-1.2178 0.43815-0.48971 1.0181-0.74744 0.58636-0.25774 1.2114-0.25774 0.56702 0 1.0052 0.12242 0.43815 0.11599 0.92141 0.36728v-3.1186h1.2114v10.026zm-1.2114-1.7719v-4.1302q-0.4897-0.21908-0.87631-0.30284-0.38661-0.0838-0.84409-0.0838-1.0181 0-1.5851 0.70878-0.56702 0.70878-0.56702 2.0104 0 1.2822 0.43816 1.9524 0.43815 0.66368 1.4047 0.66368 0.51548 0 1.0438-0.22553 0.52836-0.23196 0.98585-0.59279zm-6.9074-6.6303h-1.366v-1.2565h1.366v1.2565zm-0.0773 8.4022h-1.2114v-7.1973h1.2114v7.1973zm-2.3776-5.8764h-0.0644q-0.27062-0.0644-0.52836-0.0902-0.25129-0.0322-0.59924-0.0322-0.56058 0-1.0825 0.25129-0.52192 0.24485-1.0052 0.6379v5.1096h-1.2114v-7.1973h1.2114v1.0632q0.72167-0.57991 1.2694-0.81831 0.55413-0.24485 1.1276-0.24485 0.31573 0 0.45748 0.0193 0.14176 0.0129 0.42527 0.058v1.2436zm-6.0826-0.81832q0 0.6379-0.22552 1.1856-0.21908 0.54124-0.61857 0.94074-0.49614 0.49614-1.1727 0.74744-0.67656 0.24485-1.7075 0.24485h-1.2758v3.5761h-1.2758v-9.5943h2.6031q0.86342 0 1.4627 0.1482 0.59924 0.14175 1.0632 0.45104 0.54769 0.36727 0.84409 0.91497 0.30284 0.54769 0.30284 1.3853zm-1.3274 0.0322q0-0.49614-0.17397-0.86342-0.17397-0.36727-0.52836-0.59924-0.30929-0.19974-0.70878-0.28351-0.39305-0.0902-0.99873-0.0902h-1.2629v3.8338h1.076q0.77321 0 1.2565-0.13532 0.48326-0.14175 0.7861-0.44459 0.30284-0.30929 0.42527-0.65079 0.12886-0.3415 0.12886-0.76677zm-12.017 6.6625h-1.2114v-4.098q0-0.49615-0.058-0.92786-0.058-0.43815-0.21263-0.683-0.16109-0.27062-0.46393-0.39949-0.30284-0.13532-0.7861-0.13532-0.49615 0-1.0374 0.24486-0.54125 0.24485-1.0374 0.62501v5.3738h-1.2114v-7.1973h1.2114v0.79898q0.56702-0.47037 1.1727-0.73455t1.2436-0.26418q1.1663 0 1.7784 0.70233 0.61213 0.70234 0.61213 2.0232v4.6715zm-8.3636 0h-1.2049v-0.76677q-0.16109 0.10954-0.43816 0.30929-0.27062 0.1933-0.52836 0.30928-0.30284 0.1482-0.69589 0.24486-0.39305 0.10309-0.92141 0.10309-0.97296 0-1.6495-0.64434-0.67656-0.64435-0.67656-1.6431 0-0.81832 0.34795-1.3209 0.35438-0.50904 1.0052-0.79899 0.65723-0.28995 1.5786-0.39305 0.92141-0.10309 1.9781-0.15464v-0.18686q0-0.41238-0.1482-0.68301-0.14176-0.27062-0.41238-0.42526-0.25774-0.1482-0.61857-0.19975-0.36083-0.0515-0.75388-0.0515-0.47682 0-1.0632 0.12887-0.58635 0.12243-1.2114 0.36083h-0.0644v-1.2307q0.35439-0.0966 1.0245-0.21263 0.67011-0.11599 1.3209-0.11599 0.76033 0 1.3209 0.12887 0.56703 0.12243 0.97941 0.42527 0.40593 0.2964 0.61857 0.76677 0.21263 0.47037 0.21263 1.1663v4.8841zm-1.2049-1.7719v-2.0039q-0.55414 0.0322-1.308 0.0967-0.74744 0.0644-1.1856 0.18686-0.52192 0.1482-0.84409 0.46393-0.32217 0.30928-0.32217 0.85698 0 0.61857 0.37372 0.93429 0.37371 0.30929 1.1405 0.30929 0.6379 0 1.1663-0.24485 0.52836-0.2513 0.9794-0.59924zm-5.9473 1.3209q-0.60568 0.28996-1.1534 0.45104-0.54125 0.16109-1.1534 0.16109-0.77965 0-1.4304-0.22552-0.65079-0.23196-1.1147-0.69589-0.47037-0.46393-0.72811-1.1727-0.25774-0.70878-0.25774-1.656 0-1.7655 0.96652-2.7707 0.97296-1.0052 2.5645-1.0052 0.61857 0 1.2114 0.17397 0.59924 0.17397 1.0954 0.42527v1.3467h-0.0644q-0.55414-0.43171-1.1469-0.66367-0.58635-0.23196-1.1469-0.23196-1.031 0-1.6302 0.69589-0.5928 0.68945-0.5928 2.0297 0 1.3016 0.57991 2.0039 0.58635 0.69589 1.6431 0.69589 0.36727 0 0.74743-0.0966 0.38017-0.0967 0.68301-0.2513 0.26418-0.13531 0.49614-0.28351 0.23197-0.15464 0.36728-0.26418h0.0644v1.3338zm-7.6032-7.9512h-1.366v-1.2565h1.366v1.2565zm-0.0773 8.4022h-1.2114v-7.1973h1.2114v7.1973zm-2.3776-5.8764h-0.0644q-0.27063-0.0644-0.52836-0.0902-0.2513-0.0322-0.59924-0.0322-0.56058 0-1.0825 0.25129-0.52192 0.24485-1.0052 0.6379v5.1096h-1.2114v-7.1973h1.2114v1.0632q0.72167-0.57991 1.2694-0.81831 0.55414-0.24485 1.1276-0.24485 0.31573 0 0.45749 0.0193 0.14175 0.0129 0.42526 0.058v1.2436zm-5.2578-2.9769h-0.0644q-0.19974-0.058-0.52191-0.11598-0.32218-0.0644-0.56703-0.0644-0.77965 0-1.134 0.34794-0.34795 0.3415-0.34795 1.2436v0.24485h2.1843v1.0181h-2.1457v6.1792h-1.2114v-6.1792h-0.81832v-1.0181h0.81832v-0.23841q0-1.2822 0.6379-1.9652 0.6379-0.68945 1.8428-0.68945 0.40594 0 0.72811 0.0387 0.32861 0.0387 0.59924 0.0902v1.1083zm-5.2321 8.8533h-1.3596l-0.94074-2.674h-4.1496l-0.94074 2.674h-1.2951l3.4924-9.5943h1.7011l3.4924 9.5943zm-2.6934-3.7694-1.6817-4.7102-1.6882 4.7102h3.3699zm-10.374-5.0839h-0.0644q-0.19975-0.058-0.52192-0.11598-0.32217-0.0644-0.56702-0.0644-0.77966 0-1.134 0.34794-0.34794 0.3415-0.34794 1.2436v0.24485h2.1843v1.0181h-2.1457v6.1792h-1.2114v-6.1792h-0.81832v-1.0181h0.81832v-0.23841q0-1.2822 0.6379-1.9652 0.6379-0.68945 1.8428-0.68945 0.40594 0 0.72811 0.0387 0.32862 0.0387 0.59924 0.0902v1.1083zm-5.754 5.2578q0 1.759-0.90208 2.7771t-2.4163 1.0181q-1.5271 0-2.4292-1.0181-0.89564-1.0181-0.89564-2.7771 0-1.7591 0.89564-2.7771 0.90208-1.0245 2.4292-1.0245 1.5142 0 2.4163 1.0245 0.90208 1.0181 0.90208 2.7771zm-1.25 0q0-1.3982-0.54769-2.0748-0.5477-0.683-1.5207-0.683-0.98584 0-1.5335 0.683-0.54125 0.67656-0.54125 2.0748 0 1.3531 0.54769 2.0554 0.54769 0.69589 1.5271 0.69589 0.96652 0 1.5142-0.68944 0.55414-0.6959 0.55414-2.0619zm-11.36 0.12242h-5.303q0 0.66368 0.19975 1.1598 0.19975 0.4897 0.54769 0.80543 0.33506 0.30928 0.79255 0.46393 0.46392 0.15464 1.0181 0.15464 0.73455 0 1.4756-0.28996 0.74743-0.29639 1.0632-0.5799h0.0644v1.3209q-0.61213 0.25774-1.25 0.43171-0.6379 0.17397-1.3402 0.17397-1.7913 0-2.7965-0.96651-1.0052-0.97296-1.0052-2.7578 0-1.7655 0.96007-2.8029 0.96652-1.0374 2.5387-1.0374 1.4562 0 2.2423 0.85053 0.79254 0.85054 0.79254 2.4163v0.65723zm-1.1792-0.92785q-0.006-0.95363-0.48325-1.4756-0.47038-0.52192-1.4369-0.52192-0.97296 0-1.5529 0.57347-0.57346 0.57346-0.65079 1.424h4.1238zm-6.3146 4.3364q-0.3415 0.0902-0.74743 0.1482-0.3995 0.058-0.71523 0.058-1.1018 0-1.6753-0.5928-0.57347-0.59279-0.57347-1.9008v-3.8274h-0.81831v-1.0181h0.81831v-2.0684h1.2114v2.0684h2.5v1.0181h-2.5v3.2797q0 0.56702 0.0258 0.88919 0.0258 0.31573 0.18042 0.5928 0.14176 0.25774 0.38661 0.38016 0.25129 0.11598 0.76032 0.11598 0.2964 0 0.61857-0.0838 0.32217-0.0902 0.46393-0.1482h0.0644v1.0889zm-5.4769-2.0104q0 0.98584-0.81831 1.6173-0.81187 0.63146-2.223 0.63146-0.79898 0-1.4691-0.18686-0.66367-0.19331-1.1147-0.41883v-1.3596h0.0644q0.57347 0.43171 1.2758 0.68945 0.70233 0.25129 1.3467 0.25129 0.79898 0 1.25-0.25774 0.45104-0.25773 0.45104-0.81187 0-0.42527-0.24485-0.64434-0.24485-0.21908-0.94074-0.37372-0.25773-0.058-0.67656-0.13532-0.41238-0.0773-0.75388-0.16752-0.94718-0.2513-1.3467-0.73456-0.39305-0.4897-0.39305-1.1985 0-0.44459 0.18042-0.83764 0.18686-0.39305 0.56058-0.70234 0.36083-0.30284 0.91497-0.47681 0.56057-0.18042 1.25-0.18042 0.64435 0 1.3016 0.16109 0.66367 0.15464 1.1018 0.38016v1.2951h-0.0644q-0.46393-0.3415-1.1276-0.57346-0.66368-0.23841-1.3016-0.23841-0.66367 0-1.1212 0.25774-0.45749 0.25129-0.45749 0.75388 0 0.4446 0.27707 0.67012 0.27062 0.22552 0.87631 0.36727 0.33506 0.0773 0.74744 0.15464 0.41882 0.0773 0.69589 0.14176 0.84409 0.1933 1.3016 0.66367 0.45748 0.47682 0.45748 1.2629zm-7.4873 2.0748h-1.2049v-0.76677q-0.16109 0.10954-0.43815 0.30929-0.27063 0.1933-0.52837 0.30928-0.30284 0.1482-0.69589 0.24486-0.39305 0.10309-0.92141 0.10309-0.97296 0-1.6495-0.64434-0.67656-0.64435-0.67656-1.6431 0-0.81832 0.34795-1.3209 0.35439-0.50904 1.0052-0.79899 0.65723-0.28995 1.5786-0.39305 0.92141-0.10309 1.9781-0.15464v-0.18686q0-0.41238-0.1482-0.68301-0.14175-0.27062-0.41238-0.42526-0.25774-0.1482-0.61857-0.19975-0.36083-0.0515-0.75388-0.0515-0.47681 0-1.0632 0.12887-0.58635 0.12243-1.2114 0.36083h-0.0644v-1.2307q0.35439-0.0966 1.0245-0.21263 0.67012-0.11599 1.3209-0.11599 0.76033 0 1.3209 0.12887 0.56702 0.12243 0.9794 0.42527 0.40594 0.2964 0.61857 0.76677t0.21263 1.1663v4.8841zm-1.2049-1.7719v-2.0039q-0.55414 0.0322-1.308 0.0967-0.74744 0.0644-1.1856 0.18686-0.52192 0.1482-0.84409 0.46393-0.32217 0.30928-0.32217 0.85698 0 0.61857 0.37372 0.93429 0.37372 0.30929 1.1405 0.30929 0.6379 0 1.1663-0.24485 0.52836-0.2513 0.9794-0.59924zm-5.8571 1.7075q-0.34151 0.0902-0.74744 0.1482-0.39949 0.058-0.71522 0.058-1.1018 0-1.6753-0.5928-0.57346-0.59279-0.57346-1.9008v-3.8274h-0.81832v-1.0181h0.81832v-2.0684h1.2114v2.0684h2.5001v1.0181h-2.5001v3.2797q0 0.56702 0.0258 0.88919 0.0258 0.31573 0.18041 0.5928 0.14176 0.25774 0.38661 0.38016 0.25129 0.11598 0.76033 0.11598 0.29639 0 0.61857-0.0838 0.32217-0.0902 0.46392-0.1482h0.0644v1.0889zm-9.736 0.0644h-1.3596l-0.94074-2.674h-4.1496l-0.94074 2.674h-1.2951l3.4923-9.5943h1.7011l3.4923 9.5943zm-2.6934-3.7694-1.6817-4.7102-1.6882 4.7102h3.3699zm306.52 20.3a3.793 14.774 0 0 1 -3.793 14.774 3.793 14.774 0 0 1 -3.793 -14.774 3.793 14.774 0 0 1 3.793 -14.774 3.793 14.774 0 0 1 3.793 14.774zm-56.036 0a3.793 14.774 0 0 1 -3.793 14.774 3.793 14.774 0 0 1 -3.793 -14.774 3.793 14.774 0 0 1 3.793 -14.774 3.793 14.774 0 0 1 3.793 14.774zm-25.39-57.06a3.793 14.774 0 0 1 -3.793 14.774 3.793 14.774 0 0 1 -3.793 -14.774 3.793 14.774 0 0 1 3.793 -14.774 3.793 14.774 0 0 1 3.793 14.774zm78.812 33.491c14.011 0 24.623 8.562 24.623 22.571 0 13.443-9.977 24.552-24.977 24.552-17.053 0-24.34-12.807-24.34-23.632 0-9.694 7.5-23.491 24.694-23.491zm1.416 44.647c5.588 0 16.838-2.972 16.838-20.377 0-14.434-8.772-22.005-18.606-22.005-10.4 0-17.902 6.509-17.902 19.599-0.002 14.009 8.42 22.783 19.67 22.783zm-58.59-44.647c14.01 0 24.623 8.562 24.623 22.571 0 13.443-9.977 24.552-24.977 24.552-17.054 0-24.34-12.807-24.34-23.632 0.001-9.694 7.501-23.491 24.694-23.491zm1.414 44.647c5.59 0 16.84-2.972 16.84-20.377 0-14.434-8.772-22.005-18.606-22.005-10.402 0-17.902 6.509-17.902 19.599-0.002 14.009 8.418 22.783 19.668 22.783zm-67.7-75.33c-2.547 6.792-13.24 67.689-15.787 74.269-1.133 2.972-1.486 15.75-2.335 15.75-0.708 0-1.062-12.778-2.477-17.589l-12.596-41.958c-1.132-3.75-2.052-4.811-3.892-5.519-0.92-0.354-2.688-0.425-3.185-0.425-0.354 0-0.637-0.071-0.637-0.495 0-0.354 0.424-0.495 1.132-0.495 3.681 0 7.571 0.212 8.35 0.212 0.638 0 3.751-0.212 7.288-0.212 0.99 0 1.272 0.212 1.272 0.495 0 0.424-0.354 0.495-0.707 0.495-0.565 0-1.91 0-2.76 0.425-0.425 0.212-0.92 0.778-0.92 1.698s0.637 3.396 1.345 6.51c1.063 4.528 8.42 23.495 9.481 27.245h0.141l14.001-93.33c1.062-2.901 1.344-3.255 1.77-3.255 0.494 0 0.92 0.92 1.769 3.326l15.08 93.118h0.283c1.91-6.51 8.421-20.029 10.897-29.085 0.706-2.618 0.776-3.608 0.776-4.528 0-1.273-0.776-2.123-4.033-2.123-0.354 0-0.637-0.212-0.637-0.495 0-0.354 0.354-0.495 1.203-0.495 3.609 0 6.58 0.212 7.217 0.212 0.496 0 3.539-0.212 5.732-0.212 0.637 0 0.99 0.141 0.99 0.424 0 0.354-0.214 0.566-0.638 0.566-0.283 0-1.629 0.071-2.405 0.354-2.123 0.778-3.255 3.75-4.601 7.642-3.113 8.986-10.26 31.486-13.02 39.41-1.84 5.236-2.192 18.085-2.972 18.085-0.708 0-1.133-12.919-2.123-15.679m67.902-63.628c0.142 4.953 0.708 6.438 2.405 6.863 1.133 0.283 2.548 0.354 3.112 0.354 0.283 0 0.496 0.212 0.496 0.495 0 0.354-0.425 0.496-1.133 0.496-3.537 0-6.014-0.212-6.58-0.212-0.565 0-3.184 0.212-6.014 0.212-0.638 0-0.991-0.071-0.991-0.496 0-0.283 0.213-0.495 0.495-0.495 0.496 0 1.628-0.071 2.548-0.354 1.557-0.425 1.769-2.052 1.769-7.5v-34.458c0-2.406 0.354-3.042 0.851-3.042 0.707 0 1.769 1.203 2.405 1.84 0.989 0.99 10.047 10.613 19.67 20.519 6.154 6.368 12.807 13.514 14.717 15.495l-0.637-30.142c-0.07-3.892-0.426-5.236-2.335-5.59-1.133-0.212-2.548-0.283-3.042-0.283-0.426 0-0.496-0.354-0.496-0.566 0-0.354 0.496-0.424 1.203-0.424 2.829 0 5.802 0.142 6.51 0.142 0.707 0 2.759-0.142 5.307-0.142 0.637 0 1.132 0.071 1.132 0.424 0 0.212-0.282 0.566-0.707 0.566-0.282 0-0.777 0-1.485 0.141-2.053 0.425-2.193 1.627-2.193 5.236l-0.142 35.236c0 3.962-0.07 4.316-0.495 4.316-0.637 0-1.273-0.495-4.74-3.679-0.638-0.566-9.623-9.411-16.203-16.273-7.217-7.571-14.222-14.93-16.133-17.052l0.706 28.373zm-40.263-38.137c14.01 0 24.622 8.562 24.622 22.571 0 13.443-9.977 24.552-24.977 24.552-17.052 0-24.34-12.807-24.34-23.632 0.001-9.693 7.501-23.491 24.695-23.491zm1.416 44.647c5.59 0 16.84-2.972 16.84-20.377 0-14.434-8.773-22.005-18.608-22.005-10.401 0-17.901 6.51-17.901 19.599-0.002 14.009 8.419 22.783 19.669 22.783zm-66.1-15.78c0 5.802 0.071 10.542 0.354 13.019 0.213 1.769 0.354 2.901 2.265 3.184 0.849 0.142 2.264 0.283 2.759 0.283 0.425 0 0.566 0.283 0.566 0.495 0 0.283-0.354 0.496-1.063 0.496-3.396 0-7.357-0.212-7.712-0.212-0.283 0-4.315 0.212-6.155 0.212-0.708 0-0.99-0.142-0.99-0.496 0-0.212 0.142-0.495 0.495-0.495 0.565 0 1.273-0.142 1.84-0.283 1.272-0.283 1.485-1.486 1.697-3.254 0.283-2.477 0.283-7.005 0.283-12.807v-6.014c0-0.283-0.142-0.354-0.354-0.354h-25.969c-0.212 0-0.354 0.071-0.354 0.354v6.014c0 5.802 0 10.401 0.283 12.877 0.212 1.769 0.424 2.901 2.264 3.184 0.92 0.142 2.265 0.283 2.83 0.283 0.354 0 0.495 0.283 0.495 0.495 0 0.283-0.282 0.496-0.99 0.496-3.467 0-7.43-0.212-7.712-0.212-0.354 0-4.316 0.212-6.227 0.212-0.638 0-0.991-0.142-0.991-0.496 0-0.212 0.142-0.495 0.496-0.495 0.564 0 1.344-0.142 1.91-0.283 1.202-0.283 1.344-1.415 1.627-3.184 0.354-2.477 0.354-7.217 0.354-13.019v-10.613c0-9.34 0-11.038-0.141-12.948-0.143-2.052-0.496-3.042-2.548-3.326-0.495-0.07-1.558-0.141-2.122-0.141-0.213 0-0.495-0.283-0.495-0.496 0-0.354 0.282-0.495 0.99-0.495 2.829 0 6.792 0.142 7.146 0.142 0.282 0 4.245-0.142 6.155-0.142 0.708 0 0.99 0.142 0.99 0.495 0 0.212-0.282 0.496-0.495 0.496-0.426 0-0.85 0-1.558 0.141-1.697 0.354-2.052 1.203-2.192 3.326-0.07 1.911-0.07 3.75-0.07 13.09v1.273c0 0.354 0.142 0.354 0.354 0.354h25.969c0.212 0 0.354 0 0.354-0.354v-1.273c0-9.34-0.071-11.179-0.142-13.09-0.143-2.052-0.425-3.042-2.478-3.326-0.495-0.07-1.557-0.141-2.123-0.141-0.281 0-0.495-0.283-0.495-0.496 0-0.354 0.283-0.495 0.991-0.495 2.759 0 6.792 0.142 7.075 0.142 0.354 0 4.316-0.142 6.155-0.142 0.708 0 1.062 0.142 1.062 0.495 0 0.212-0.282 0.496-0.564 0.496-0.425 0-0.778 0-1.558 0.141-1.628 0.354-1.98 1.203-2.123 3.326-0.142 1.911-0.142 3.608-0.142 12.948v10.613h0.004zm-78.895 16.628c-0.85-0.425-0.921-0.637-0.921-2.264 0-2.972 0.283-5.377 0.354-6.368 0-0.637 0.142-0.99 0.496-0.99s0.564 0.212 0.564 0.708c0 0.495 0 1.344 0.213 2.193 0.99 4.387 5.66 5.943 9.835 5.943 6.155 0 9.34-3.467 9.34-7.996 0-4.316-2.335-6.368-7.854-10.472l-2.83-2.123c-6.722-5.023-8.915-8.703-8.915-12.877 0-7.075 5.591-11.321 13.797-11.321 2.478 0 4.953 0.354 6.438 0.708 1.203 0.283 1.698 0.283 2.193 0.283 0.496 0 0.637 0.071 0.637 0.424 0 0.283-0.282 2.264-0.282 6.368 0 0.92-0.071 1.344-0.495 1.344-0.425 0-0.496-0.283-0.565-0.778-0.071-0.708-0.566-2.335-0.92-2.972-0.426-0.708-2.478-2.972-8.066-2.972-4.528 0-8.278 2.264-8.278 6.509 0 3.821 1.911 6.014 8.066 10.189l1.769 1.203c7.571 5.165 10.189 9.34 10.189 14.505 0 3.538-1.345 7.358-5.803 10.26-2.617 1.698-6.51 2.123-9.905 2.123-2.902 0-6.51-0.425-9.057-1.627zm-30.072-43.444c0.778-1.981 1.062-2.334 1.484-2.334 0.638 0 0.851 0.849 1.486 2.193 1.132 2.547 11.108 27.382 14.929 36.509 2.266 5.377 3.964 6.156 5.308 6.581 0.92 0.283 1.84 0.354 2.477 0.354 0.354 0 0.778 0.142 0.778 0.495 0 0.354-0.707 0.496-1.415 0.496-0.92 0-5.519 0-9.835-0.142-1.203-0.071-2.193-0.071-2.193-0.425 0-0.283 0.143-0.283 0.426-0.424 0.354-0.142 0.989-0.637 0.564-1.627l-5.589-13.797c-0.142-0.283-0.213-0.354-0.566-0.354h-14.362c-0.283 0-0.495 0.142-0.638 0.495l-3.538 9.623c-0.564 1.486-0.92 2.972-0.92 4.033 0 1.203 1.063 1.627 2.123 1.627h0.566c0.495 0 0.637 0.212 0.637 0.495 0 0.354-0.354 0.496-0.92 0.496-1.486 0-4.882-0.212-5.59-0.212-0.637 0-3.75 0.212-6.297 0.212-0.778 0-1.203-0.142-1.203-0.496 0-0.283 0.283-0.495 0.566-0.495 0.424 0 1.344-0.071 1.839-0.142 2.831-0.354 4.032-2.477 5.235-5.519l14.648-37.642zm6.934 25.047c0.283 0 0.283-0.142 0.212-0.424l-6.154-16.486c-0.354-0.92-0.707-0.92-1.063 0l-5.802 16.486c-0.07 0.283 0 0.424 0.212 0.424h12.595zm-54.344-13.726c0-11.038 0-13.019-0.141-15.283-0.143-2.406-0.708-3.538-3.043-4.033-0.566-0.142-1.77-0.212-2.405-0.212-0.283 0-0.566-0.142-0.566-0.424 0-0.425 0.354-0.566 1.132-0.566 1.629 0 3.538 0 5.096 0.07l2.899 0.142c1.416 0.071 15.778 0 17.406-0.071 1.345-0.071 2.478-0.071 3.113-0.283 0.425-0.142 0.707-0.425 0.99-0.425 0.282 0 0.425 0.283 0.425 0.637 0 0.496-0.354 1.345-0.566 3.326-0.07 0.708-0.212 3.821-0.354 4.67-0.07 0.354-0.212 0.778-0.566 0.778s-0.495-0.354-0.495-0.849c0-0.566-0.212-1.769-0.637-2.688-0.425-0.92-2.052-2.194-4.813-2.264l-10.896-0.212c-0.425 0-0.638 0.212-0.638 0.778v19.528c0 0.424 0.07 0.637 0.496 0.637l9.057-0.071c1.202 0 2.193 0 3.184-0.071 1.698-0.142 2.618-0.354 3.255-1.273 0.283-0.354 0.495-0.708 0.778-0.708s0.354 0.212 0.354 0.566c0 0.425-0.354 1.627-0.565 3.962-0.142 1.415-0.283 4.245-0.283 4.741 0 0.637 0 1.344-0.495 1.344-0.354 0-0.496-0.283-0.496-0.637-0.069-0.708-0.142-1.698-0.424-2.547-0.354-0.991-1.485-2.264-3.68-2.547-1.77-0.212-9.481-0.212-10.684-0.212-0.354 0-0.496 0.142-0.496 0.637v6.014c0 6.792 0 12.382 0.354 15.354 0.212 2.052 0.637 3.608 2.759 3.891 0.991 0.142 2.548 0.283 3.186 0.283 0.425 0 0.564 0.212 0.564 0.424 0 0.354-0.354 0.566-1.132 0.566-3.892 0-8.349-0.212-8.703-0.212s-4.811 0.212-6.934 0.212c-0.778 0-1.132-0.142-1.132-0.566 0-0.212 0.142-0.424 0.564-0.424 0.638 0 1.486-0.142 2.123-0.283 1.415-0.283 1.77-1.839 2.052-3.891 0.354-2.972 0.354-8.562 0.354-15.354l0.003-12.454z"/></g>
</svg>
